<svg width="37" height="37" viewBox="0 0 37 37" fill="none" xmlns="http://www.w3.org/2000/svg">
<path d="M18.4997 4.08331C10.1423 4.08331 3.08301 11.1426 3.08301 19.5C3.08301 24.4164 5.53734 28.8702 9.24967 31.7161V31.8333H9.40693C11.9784 33.7527 15.128 34.9166 18.4997 34.9166C21.8713 34.9166 25.0209 33.7527 27.5924 31.8333H27.7497V31.7161C31.462 28.8702 33.9163 24.4179 33.9163 19.5C33.9163 11.1426 26.857 4.08331 18.4997 4.08331ZM12.4471 30.1791C12.6743 29.1514 13.245 28.2319 14.065 27.5721C14.8851 26.9124 15.9055 26.5519 16.958 26.55H20.0413C21.0938 26.5521 22.1141 26.9128 22.9341 27.5725C23.7541 28.2322 24.3248 29.1516 24.5523 30.1791C22.7516 31.2228 20.6827 31.8333 18.4997 31.8333C16.3167 31.8333 14.2478 31.2228 12.4471 30.1791ZM27.1484 28.1965C26.5604 26.7965 25.5724 25.601 24.3083 24.7597C23.0441 23.9184 21.5599 23.4686 20.0413 23.4667H16.958C15.4395 23.4686 13.9553 23.9184 12.6911 24.7597C11.4269 25.601 10.439 26.7965 9.85092 28.1965C7.5893 25.9472 6.16634 22.8546 6.16634 19.5C6.16634 12.8138 11.8135 7.16665 18.4997 7.16665C25.1859 7.16665 30.833 12.8138 30.833 19.5C30.833 22.8546 29.4101 25.9472 27.1484 28.1965Z" fill="#105A90"/>
<path d="M18.4997 10.25C14.9847 10.25 12.333 12.9017 12.333 16.4167C12.333 19.9317 14.9847 22.5833 18.4997 22.5833C22.0147 22.5833 24.6663 19.9317 24.6663 16.4167C24.6663 12.9017 22.0147 10.25 18.4997 10.25ZM18.4997 19.5C16.6836 19.5 15.4163 18.2327 15.4163 16.4167C15.4163 14.6006 16.6836 13.3333 18.4997 13.3333C20.3158 13.3333 21.583 14.6006 21.583 16.4167C21.583 18.2327 20.3158 19.5 18.4997 19.5Z" fill="#105A90"/>
</svg>
